{
    "asset" : {
        "generator" : "Khronos glTF Blender I/O v1.8.19",
        "version" : "2.0"
    },
    "scene" : 0,
    "scenes" : [
        {
            "name" : "Scene",
            "nodes" : [
                0
            ]
        }
    ],
    "nodes" : [
        {
            "mesh" : 0,
            "name" : "\u529e\u516c\u690507"
        }
    ],
    "materials" : [
        {
            "doubleSided" : true,
            "name" : "vm_v1_005_leather",
            "pbrMetallicRoughness" : {
                "baseColorFactor" : [
                    0.5803920030593872,
                    0.36862701177597046,
                    0.17647099494934082,
                    1
                ],
                "metallicFactor" : 0
            }
        },
        {
            "doubleSided" : true,
            "name" : "vm_v1_005_mesh",
            "pbrMetallicRoughness" : {
                "baseColorFactor" : [
                    0.7529410123825073,
                    0.7529410123825073,
                    0.7529410123825073,
                    1
                ],
                "metallicFactor" : 0,
                "roughnessFactor" : 0.7992125749588013
            }
        },
        {
            "doubleSided" : true,
            "name" : "vm_v1_005_aluminium",
            "pbrMetallicRoughness" : {
                "baseColorFactor" : [
                    0.521569013595581,
                    0.521569013595581,
                    0.521569013595581,
                    1
                ],
                "metallicFactor" : 0,
                "roughnessFactor" : 0.712598443031311
            }
        },
        {
            "doubleSided" : true,
            "name" : "vm_v1_005_plastic_black",
            "pbrMetallicRoughness" : {
                "baseColorFactor" : [
                    0.1411760002374649,
                    0.1411760002374649,
                    0.1411760002374649,
                    1
                ],
                "metallicFactor" : 0,
                "roughnessFactor" : 0.7204724550247192
            }
        },
        {
            "doubleSided" : true,
            "name" : "vm_v1_005_plastic_grey",
            "pbrMetallicRoughness" : {
                "baseColorFactor" : [
                    0.38431400060653687,
                    0.38431400060653687,
                    0.38431400060653687,
                    1
                ],
                "metallicFactor" : 0,
                "roughnessFactor" : 0.7440944910049438
            }
        },
        {
            "doubleSided" : true,
            "name" : "vm_v1_005_metal",
            "pbrMetallicRoughness" : {
                "baseColorFactor" : [
                    0.12156900018453598,
                    0.12156900018453598,
                    0.12156900018453598,
                    1
                ],
                "metallicFactor" : 0,
                "roughnessFactor" : 0.7283464670181274
            }
        },
        {
            "doubleSided" : true,
            "name" : "vm_v1_005_chrome",
            "pbrMetallicRoughness" : {
                "baseColorFactor" : [
                    0.313726007938385,
                    0.313726007938385,
                    0.313726007938385,
                    1
                ],
                "metallicFactor" : 0,
                "roughnessFactor" : 0.7047244310379028
            }
        }
    ],
    "meshes" : [
        {
            "name" : "Obj3d66-1066551-5-588",
            "primitives" : [
                {
                    "attributes" : {
                        "POSITION" : 0,
                        "NORMAL" : 1,
                        "TEXCOORD_0" : 2,
                        "COLOR_0" : 3
                    },
                    "indices" : 4,
                    "material" : 0
                },
                {
                    "attributes" : {
                        "POSITION" : 5,
                        "NORMAL" : 6,
                        "TEXCOORD_0" : 7,
                        "COLOR_0" : 8
                    },
                    "indices" : 9,
                    "material" : 1
                },
                {
                    "attributes" : {
                        "POSITION" : 10,
                        "NORMAL" : 11,
                        "TEXCOORD_0" : 12,
                        "COLOR_0" : 13
                    },
                    "indices" : 14,
                    "material" : 2
                },
                {
                    "attributes" : {
                        "POSITION" : 15,
                        "NORMAL" : 16,
                        "TEXCOORD_0" : 17,
                        "COLOR_0" : 18
                    },
                    "indices" : 19,
                    "material" : 3
                },
                {
                    "attributes" : {
                        "POSITION" : 20,
                        "NORMAL" : 21,
                        "TEXCOORD_0" : 22,
                        "COLOR_0" : 23
                    },
                    "indices" : 24,
                    "material" : 4
                },
                {
                    "attributes" : {
                        "POSITION" : 25,
                        "NORMAL" : 26,
                        "TEXCOORD_0" : 27,
                        "COLOR_0" : 28
                    },
                    "indices" : 29,
                    "material" : 5
                },
                {
                    "attributes" : {
                        "POSITION" : 30,
                        "NORMAL" : 31,
                        "TEXCOORD_0" : 32,
                        "COLOR_0" : 33
                    },
                    "indices" : 34,
                    "material" : 6
                }
            ]
        }
    ],
    "accessors" : [
        {
            "bufferView" : 0,
            "componentType" : 5126,
            "count" : 9842,
            "max" : [
                0.3788013458251953,
                1.0310389995574951,
                0.3835815489292145
            ],
            "min" : [
                -0.2958918809890747,
                0.3966679871082306,
                -0.28925055265426636
            ],
            "type" : "VEC3"
        },
        {
            "bufferView" : 1,
            "componentType" : 5126,
            "count" : 9842,
            "type" : "VEC3"
        },
        {
            "bufferView" : 2,
            "componentType" : 5126,
            "count" : 9842,
            "type" : "VEC2"
        },
        {
            "bufferView" : 3,
            "componentType" : 5123,
            "count" : 9842,
            "normalized" : true,
            "type" : "VEC4"
        },
        {
            "bufferView" : 4,
            "componentType" : 5123,
            "count" : 53910,
            "type" : "SCALAR"
        },
        {
            "bufferView" : 5,
            "componentType" : 5126,
            "count" : 189,
            "max" : [
                0.08382846415042877,
                1.022825002670288,
                0.0623089075088501
            ],
            "min" : [
                -0.28131628036499023,
                0.45251598954200745,
                -0.2758563458919525
            ],
            "type" : "VEC3"
        },
        {
            "bufferView" : 6,
            "componentType" : 5126,
            "count" : 189,
            "type" : "VEC3"
        },
        {
            "bufferView" : 7,
            "componentType" : 5126,
            "count" : 189,
            "type" : "VEC2"
        },
        {
            "bufferView" : 8,
            "componentType" : 5123,
            "count" : 189,
            "normalized" : true,
            "type" : "VEC4"
        },
        {
            "bufferView" : 9,
            "componentType" : 5123,
            "count" : 960,
            "type" : "SCALAR"
        },
        {
            "bufferView" : 10,
            "componentType" : 5126,
            "count" : 11158,
            "max" : [
                0.34699249267578125,
                1.030703067779541,
                0.3343507945537567
            ],
            "min" : [
                -0.34563523530960083,
                0.05920800566673279,
                -0.34796860814094543
            ],
            "type" : "VEC3"
        },
        {
            "bufferView" : 11,
            "componentType" : 5126,
            "count" : 11158,
            "type" : "VEC3"
        },
        {
            "bufferView" : 12,
            "componentType" : 5126,
            "count" : 11158,
            "type" : "VEC2"
        },
        {
            "bufferView" : 13,
            "componentType" : 5123,
            "count" : 11158,
            "normalized" : true,
            "type" : "VEC4"
        },
        {
            "bufferView" : 14,
            "componentType" : 5123,
            "count" : 61752,
            "type" : "SCALAR"
        },
        {
            "bufferView" : 15,
            "componentType" : 5126,
            "count" : 11966,
            "max" : [
                0.3545224666595459,
                0.42691099643707275,
                0.3413628935813904
            ],
            "min" : [
                -0.3788013458251953,
                0.006065011024475098,
                -0.3835815489292145
            ],
            "type" : "VEC3"
        },
        {
            "bufferView" : 16,
            "componentType" : 5126,
            "count" : 11966,
            "type" : "VEC3"
        },
        {
            "bufferView" : 17,
            "componentType" : 5126,
            "count" : 11966,
            "type" : "VEC2"
        },
        {
            "bufferView" : 18,
            "componentType" : 5123,
            "count" : 11966,
            "normalized" : true,
            "type" : "VEC4"
        },
        {
            "bufferView" : 19,
            "componentType" : 5123,
            "count" : 62592,
            "type" : "SCALAR"
        },
        {
            "bufferView" : 20,
            "componentType" : 5126,
            "count" : 14730,
            "max" : [
                0.35325920581817627,
                0.6667090058326721,
                0.3397579491138458
            ],
            "min" : [
                -0.37750178575515747,
                0,
                -0.38193729519844055
            ],
            "type" : "VEC3"
        },
        {
            "bufferView" : 21,
            "componentType" : 5126,
            "count" : 14730,
            "type" : "VEC3"
        },
        {
            "bufferView" : 22,
            "componentType" : 5126,
            "count" : 14730,
            "type" : "VEC2"
        },
        {
            "bufferView" : 23,
            "componentType" : 5123,
            "count" : 14730,
            "normalized" : true,
            "type" : "VEC4"
        },
        {
            "bufferView" : 24,
            "componentType" : 5123,
            "count" : 55068,
            "type" : "SCALAR"
        },
        {
            "bufferView" : 25,
            "componentType" : 5126,
            "count" : 1846,
            "max" : [
                0.21361492574214935,
                0.9756839871406555,
                0.22441665828227997
            ],
            "min" : [
                -0.1574317067861557,
                0.30386799573898315,
                -0.16689196228981018
            ],
            "type" : "VEC3"
        },
        {
            "bufferView" : 26,
            "componentType" : 5126,
            "count" : 1846,
            "type" : "VEC3"
        },
        {
            "bufferView" : 27,
            "componentType" : 5126,
            "count" : 1846,
            "type" : "VEC2"
        },
        {
            "bufferView" : 28,
            "componentType" : 5123,
            "count" : 1846,
            "normalized" : true,
            "type" : "VEC4"
        },
        {
            "bufferView" : 29,
            "componentType" : 5123,
            "count" : 10122,
            "type" : "SCALAR"
        },
        {
            "bufferView" : 30,
            "componentType" : 5126,
            "count" : 5288,
            "max" : [
                0.2114884853363037,
                1.0308170318603516,
                0.22166725993156433
            ],
            "min" : [
                -0.2946029305458069,
                0.2501469850540161,
                -0.28831255435943604
            ],
            "type" : "VEC3"
        },
        {
            "bufferView" : 31,
            "componentType" : 5126,
            "count" : 5288,
            "type" : "VEC3"
        },
        {
            "bufferView" : 32,
            "componentType" : 5126,
            "count" : 5288,
            "type" : "VEC2"
        },
        {
            "bufferView" : 33,
            "componentType" : 5123,
            "count" : 5288,
            "normalized" : true,
            "type" : "VEC4"
        },
        {
            "bufferView" : 34,
            "componentType" : 5123,
            "count" : 29712,
            "type" : "SCALAR"
        }
    ],
    "bufferViews" : [
        {
            "buffer" : 0,
            "byteLength" : 118104,
            "byteOffset" : 0
        },
        {
            "buffer" : 0,
            "byteLength" : 118104,
            "byteOffset" : 118104
        },
        {
            "buffer" : 0,
            "byteLength" : 78736,
            "byteOffset" : 236208
        },
        {
            "buffer" : 0,
            "byteLength" : 78736,
            "byteOffset" : 314944
        },
        {
            "buffer" : 0,
            "byteLength" : 107820,
            "byteOffset" : 393680
        },
        {
            "buffer" : 0,
            "byteLength" : 2268,
            "byteOffset" : 501500
        },
        {
            "buffer" : 0,
            "byteLength" : 2268,
            "byteOffset" : 503768
        },
        {
            "buffer" : 0,
            "byteLength" : 1512,
            "byteOffset" : 506036
        },
        {
            "buffer" : 0,
            "byteLength" : 1512,
            "byteOffset" : 507548
        },
        {
            "buffer" : 0,
            "byteLength" : 1920,
            "byteOffset" : 509060
        },
        {
            "buffer" : 0,
            "byteLength" : 133896,
            "byteOffset" : 510980
        },
        {
            "buffer" : 0,
            "byteLength" : 133896,
            "byteOffset" : 644876
        },
        {
            "buffer" : 0,
            "byteLength" : 89264,
            "byteOffset" : 778772
        },
        {
            "buffer" : 0,
            "byteLength" : 89264,
            "byteOffset" : 868036
        },
        {
            "buffer" : 0,
            "byteLength" : 123504,
            "byteOffset" : 957300
        },
        {
            "buffer" : 0,
            "byteLength" : 143592,
            "byteOffset" : 1080804
        },
        {
            "buffer" : 0,
            "byteLength" : 143592,
            "byteOffset" : 1224396
        },
        {
            "buffer" : 0,
            "byteLength" : 95728,
            "byteOffset" : 1367988
        },
        {
            "buffer" : 0,
            "byteLength" : 95728,
            "byteOffset" : 1463716
        },
        {
            "buffer" : 0,
            "byteLength" : 125184,
            "byteOffset" : 1559444
        },
        {
            "buffer" : 0,
            "byteLength" : 176760,
            "byteOffset" : 1684628
        },
        {
            "buffer" : 0,
            "byteLength" : 176760,
            "byteOffset" : 1861388
        },
        {
            "buffer" : 0,
            "byteLength" : 117840,
            "byteOffset" : 2038148
        },
        {
            "buffer" : 0,
            "byteLength" : 117840,
            "byteOffset" : 2155988
        },
        {
            "buffer" : 0,
            "byteLength" : 110136,
            "byteOffset" : 2273828
        },
        {
            "buffer" : 0,
            "byteLength" : 22152,
            "byteOffset" : 2383964
        },
        {
            "buffer" : 0,
            "byteLength" : 22152,
            "byteOffset" : 2406116
        },
        {
            "buffer" : 0,
            "byteLength" : 14768,
            "byteOffset" : 2428268
        },
        {
            "buffer" : 0,
            "byteLength" : 14768,
            "byteOffset" : 2443036
        },
        {
            "buffer" : 0,
            "byteLength" : 20244,
            "byteOffset" : 2457804
        },
        {
            "buffer" : 0,
            "byteLength" : 63456,
            "byteOffset" : 2478048
        },
        {
            "buffer" : 0,
            "byteLength" : 63456,
            "byteOffset" : 2541504
        },
        {
            "buffer" : 0,
            "byteLength" : 42304,
            "byteOffset" : 2604960
        },
        {
            "buffer" : 0,
            "byteLength" : 42304,
            "byteOffset" : 2647264
        },
        {
            "buffer" : 0,
            "byteLength" : 59424,
            "byteOffset" : 2689568
        }
    ],
    "buffers" : [
        {
            "byteLength" : 2748992,
            "uri" : "data:application/octet-stream;base64,"
        }
    ]
}
